<?xml version="1.0" encoding="UTF-8" standalone="no"?>
<!-- Created with Inkscape (http://www.inkscape.org/) -->

<svg
   xmlns:dc="http://purl.org/dc/elements/1.1/"
   xmlns:cc="http://creativecommons.org/ns#"
   xmlns:rdf="http://www.w3.org/1999/02/22-rdf-syntax-ns#"
   xmlns:svg="http://www.w3.org/2000/svg"
   xmlns="http://www.w3.org/2000/svg"
   xmlns:sodipodi="http://sodipodi.sourceforge.net/DTD/sodipodi-0.dtd"
   xmlns:inkscape="http://www.inkscape.org/namespaces/inkscape"
   width="210mm"
   height="297mm"
   viewBox="0 0 744.09448819 1052.3622047"
   id="svg2"
   version="1.1"
   inkscape:version="0.91 r13725"
   sodipodi:docname="03.01.deflection.svg">
  <defs
     id="defs4" />
  <sodipodi:namedview
     id="base"
     pagecolor="#ffffff"
     bordercolor="#666666"
     borderopacity="1.0"
     inkscape:pageopacity="0.0"
     inkscape:pageshadow="2"
     inkscape:zoom="1.9927004"
     inkscape:cx="353.12883"
     inkscape:cy="695.96677"
     inkscape:document-units="px"
     inkscape:current-layer="layer1"
     showgrid="false"
     inkscape:window-width="1366"
     inkscape:window-height="702"
     inkscape:window-x="0"
     inkscape:window-y="27"
     inkscape:window-maximized="1"
     inkscape:snap-bbox="true" />
  <metadata
     id="metadata7">
    <rdf:RDF>
      <cc:Work
         rdf:about="">
        <dc:format>image/svg+xml</dc:format>
        <dc:type
           rdf:resource="http://purl.org/dc/dcmitype/StillImage" />
        <dc:title />
      </cc:Work>
    </rdf:RDF>
  </metadata>
  <g
     inkscape:label="Ebene 1"
     inkscape:groupmode="layer"
     id="layer1">
    <!-- Drive Route Point d_1 -->
    <text
       xml:space="preserve"
       style="font-style:normal;font-weight:normal;font-size:40px;line-height:125%;font-family:sans-serif;letter-spacing:0px;word-spacing:0px;fill:#000000;fill-opacity:1;stroke:none;stroke-width:1px;stroke-linecap:butt;stroke-linejoin:miter;stroke-opacity:1"
       x="-1073.4177"
       y="425.07272"
       id="text4173"
       sodipodi:linespacing="125%"><tspan
         sodipodi:role="line"
         id="tspan4175"
         x="-1073.4177"
         y="425.07272" /></text>
    <text
       xml:space="preserve"
       style="font-style:normal;font-weight:normal;font-size:40px;line-height:125%;font-family:sans-serif;letter-spacing:0px;word-spacing:0px;fill:#000000;fill-opacity:1;stroke:none;stroke-width:1px;stroke-linecap:butt;stroke-linejoin:miter;stroke-opacity:1"
       x="-1068.3994"
       y="451.6698"
       id="text4177"
       sodipodi:linespacing="125%"><tspan
         sodipodi:role="line"
         id="tspan4179"
         x="-1068.3994"
         y="451.6698" /></text>
    <circle
       style="fill:#ff0000;fill-rule:evenodd;stroke:#000000;stroke-width:1px;stroke-linecap:butt;stroke-linejoin:miter;stroke-opacity:1"
       id="path3336"
       cx="169.86339"
       cy="382.69058"
       r="5" />
    <circle
       style="fill:#ff0000;fill-rule:evenodd;stroke:#000000;stroke-width:1px;stroke-linecap:butt;stroke-linejoin:miter;stroke-opacity:1"
       id="circle8"
       cx="569.8634"
       cy="382.69058"
       r="5" />
    <path
       style="fill:none;fill-rule:evenodd;stroke:#0000ff;stroke-width:1px;stroke-linecap:butt;stroke-linejoin:miter;stroke-opacity:1"
       d="m 174.86339,383.69423 390.00001,0"
       id="path3359"
       inkscape:connector-type="polyline"
       inkscape:connector-curvature="0" />
    <path
       style="fill:none;fill-rule:evenodd;stroke:#00ff00;stroke-width:1px;stroke-linecap:butt;stroke-linejoin:miter;stroke-opacity:1"
       d="m 171.69471,381.69781 c 0.6347,0.90066 -0.3174,2.05883 0,3.01099 0.075,0.22443 0.3706,0.305 0.5018,0.50183 0.2075,0.31123 0.2145,0.76421 0.5018,1.00367 0.7493,0.62442 1.7475,0.89617 2.5092,1.50549 0.9236,0.73891 1.5808,1.77623 2.5091,2.50916 2.2589,1.7833 4.5787,3.50349 7.0257,5.01831 2.3701,1.4672 4.4502,1.6507 7.0256,2.50916 0.8546,0.28487 1.6401,0.76665 2.5092,1.00367 2.3442,0.63933 3.2197,0.50183 5.5201,0.50183 0.6691,0 1.3726,0.21159 2.0074,0 0.4488,-0.14962 0.6691,-0.66911 1.0036,-1.00367 0.6691,-0.16727 1.331,-0.36657 2.0073,-0.50183 0.9978,-0.19955 2.0583,-0.14456 3.011,-0.50183 2.0074,-0.75275 0.2509,-0.8782 1.5055,-1.50549 0.237,-0.11847 2.1803,-0.61999 2.5092,-1.00367 0.785,-0.91585 1.2351,-2.08432 2.0073,-3.01099 0.9087,-1.0904 2.0073,-2.00732 3.011,-3.01099 1.1709,-1.17094 2.3802,-2.30473 3.5128,-3.51282 1.3777,-1.46949 2.682,-3.00609 4.0147,-4.51648 1.1765,-1.33335 2.169,-2.85007 3.5128,-4.01465 8.03049,-6.95976 0.3949,1.61244 7.0256,-5.01832 2.79393,-2.79389 3.20323,-3.69791 5.01835,-7.02564 0.35823,-0.65674 0.47469,-1.47835 1.00367,-2.00733 0.85295,-0.85295 2.15804,-1.15437 3.01099,-2.00732 0.85294,-0.85295 1.25378,-2.06907 2.00732,-3.01099 0.59113,-0.73891 1.39151,-1.28887 2.00733,-2.00733 0.39251,-0.45793 0.4493,-1.26791 1.00366,-1.50549 0.76876,-0.32947 1.7999,0.44328 2.50916,0 1.88436,-1.17773 1.22137,-3.54657 2.50916,-5.01832 0.64229,-0.73405 1.63674,-1.06929 2.50915,-1.50549 0.14962,-0.0748 0.42703,0.14961 0.50184,0 0.50183,-1.00367 -0.25092,-0.75275 0,-1.5055 0.47588,-1.42766 1.71413,-2.24079 2.50915,-3.51282 0.28036,-0.44857 0.20841,-1.06536 0.50184,-1.5055 0.39366,-0.5905 1.06215,-0.95131 1.50549,-1.50549 1.10563,-0.25272 0.26527,-1.03236 0.50183,-1.50549 0.1058,-0.2116 0.29024,-0.39604 0.50184,-0.50184 0.14962,-0.0748 0.49071,0.16691 0.50184,0 0,-2.50915 0,-5.01831 0,-7.52747 0.33455,-0.16728 0.83638,-0.16728 1.00366,-0.50183 0.22442,-0.44885 -0.19768,-1.04424 0,-1.5055 0.32947,-0.76876 0.98301,-1.35422 1.50549,-2.00732 0.34563,-0.43204 2.47854,-3.15275 3.51282,-4.01466 0.64253,-0.53544 1.29014,-1.07517 2.00733,-1.50549 0.14344,-0.0861 0.38355,0.11828 0.50183,0 0.26449,-0.26449 0.27741,-0.70443 0.50183,-1.00366 -1.23832,-1.51929 1.36502,-0.86319 1.5055,-1.00367 0.42647,-0.42647 0.57719,-1.07902 1.00366,-1.50549 1.04351,-1.04351 6.13026,-4.97297 7.02564,-5.52015 1.59582,-0.97522 3.38346,-1.6009 5.01832,-2.50916 4.08901,-2.27167 3.44114,-2.97303 8.0293,-3.51282 10.66393,-1.25458 -0.41819,0.83639 7.52748,0 2.1881,-0.23032 4.36635,-0.57217 6.52381,-1.00366 1.19414,-0.23883 2.37618,-0.5665 3.51281,-1.00366 1.04733,-0.40282 2.00733,-1.00367 3.01099,-1.5055 1.17094,-0.50183 2.32379,-1.04817 3.51282,-1.50549 10.41874,-4.00721 -4.17128,1.54465 6.02198,-1.00367 1.08862,-0.27215 1.9284,-1.21024 3.01099,-1.50549 0.61335,-0.16728 3.11135,0.10037 4.01465,0 1.01129,-0.11237 1.99853,-0.40059 3.01099,-0.50183 1.16513,-0.11652 2.34188,0 3.51282,0 1.17094,0 2.35092,-0.14524 3.51282,0 0.68438,0.0855 1.32701,0.38844 2.00733,0.50183 0.52604,0.0877 4.23035,0.0409 4.51648,0 0.52366,-0.0748 0.98184,-0.42702 1.5055,-0.50183 0.66238,-0.0946 1.33822,0 2.00732,0 0.66911,0 1.33822,0 2.00733,0 1.33822,0 2.68462,-0.14778 4.01465,0 2.6574,0.29526 3.95326,1.72571 6.52381,3.01099 0.80572,0.40285 1.65457,0.7188 2.50916,1.00366 1.1553,0.3851 2.30919,0.81849 3.51282,1.00366 10.87302,1.67278 -2.78795,-1.11518 5.01832,0 0.52366,0.0748 0.98679,0.39809 1.50549,0.50183 0.32806,0.0656 0.70443,-0.14961 1.00367,0 0.14961,0.0748 0,0.33456 0,0.50184 0.16727,0.16727 0.2774,0.42702 0.50183,0.50183 1.61836,0.53945 3.38785,0.50198 5.01831,1.00366 1.36602,0.42031 2.73633,0.86633 4.01466,1.5055 1.41148,0.70574 2.63922,1.73548 4.01465,2.50915 4.01454,2.25819 3.63969,1.41008 7.02564,4.01466 1.2224,0.9403 2.30015,2.05817 3.51282,3.01099 1.79776,1.41252 4.57604,3.21797 6.52381,4.51648 1.85055,1.2337 3.57122,2.44977 5.52015,3.51282 0.98511,0.53734 2.00733,1.00366 3.01099,1.5055 1.00366,0.50183 1.94644,1.15064 3.01099,1.50549 0.96529,0.32176 2.08894,0.0715 3.01099,0.50183 3.18572,1.48667 5.3707,3.86187 8.0293,6.02198 1.48025,1.2027 2.95832,2.41294 4.51649,3.51282 2.57849,1.82012 5.4032,3.26758 8.0293,5.01832 1.1973,0.7982 2.49532,1.49165 3.51282,2.50916 1.51865,1.51864 6.32302,9.00611 7.02565,10.03663 1.15026,1.68705 2.40002,3.30631 3.51282,5.01831 1.06314,1.63561 1.90582,3.4108 3.01099,5.01832 0.74015,1.07659 1.81672,1.9031 2.50915,3.01099 0.17732,0.2837 0,0.66911 0,1.00366 0,0.50183 0,1.00366 0,1.5055 0,3.04182 -0.19683,2.72548 0.50184,5.52014 3.23592,12.94371 -1.78572,-6.19268 3.51282,6.52381 0.38602,0.92646 -0.0909,2.01145 0,3.01099 0.0772,0.84945 0.25673,1.69218 0.50183,2.50916 1.15362,3.84542 2.9347,5.05536 5.52015,9.03297 0.73498,1.13075 1.55373,2.24276 2.00732,3.51282 0.39783,1.11392 -0.22435,2.57915 0.50183,3.51282 0.64952,0.8351 2.20773,0.31516 3.01099,1.00366 0.52366,0.44886 0.30365,1.34672 0.50183,2.00733 0.30401,1.01334 0.69967,1.99765 1.00367,3.01099 0.19818,0.66061 0.053,1.48367 0.50183,2.00733 0.63477,0.74056 1.7072,0.95029 2.50916,1.50549 1.37534,0.95216 2.56974,2.16813 4.01465,3.01099 0.59575,0.34752 1.33822,0.33456 2.00733,0.50183 0.6691,0.16728 1.32455,0.4043 2.00732,0.50183 2.67736,0.38248 0.35176,-0.56186 3.01099,0.50184 1.8778,0.75112 0.15278,0.3273 2.50916,1.50549 0.26088,0.13044 2.94124,0.93391 3.01099,1.00366 0.37404,0.37405 0.12779,1.13146 0.50183,1.5055 0.52898,0.52898 1.36585,0.61877 2.00733,1.00366 0.96074,0.57645 0.0886,0.59046 1.00366,1.5055 0.42647,0.42647 1.07902,0.57718 1.50549,1.00366 0.11829,0.11828 -0.11828,0.38355 0,0.50183 0.11829,0.11828 0.33456,0 0.50184,0 1.50549,0 3.01099,0 4.51648,0 0.50183,0 1.00366,0 1.5055,0 0.33455,0 0.6756,-0.0656 1.00366,0 0.5187,0.10374 0.97652,0.50183 1.50549,0.50183 6.45219,0 1.31036,-0.38567 5.01832,-1.00366 0.495,-0.0825 1.02941,0.15869 1.50549,0 4.47987,-1.49329 -1.95116,-0.64133 3.51282,-2.00733 0.64914,-0.16228 1.34495,0.0946 2.00733,0 1.04732,-0.14961 1.96367,-0.85404 3.01099,-1.00366 0.66238,-0.0946 1.33822,0 2.00733,0 0.16727,0 0.33955,-0.0406 0.50183,0 0.51318,0.1283 0.98371,0.41487 1.50549,0.50183 0.49501,0.0825 1.00367,0 1.5055,0 0.50183,0 1.00366,0 1.50549,0 1.5055,0 3.01099,0 4.51649,0 1.00481,0 0.0639,0.0748 1.50549,-0.50183 0.49114,-0.19646 0.98679,-0.39809 1.5055,-0.50183 0.32805,-0.0656 0.67909,0.0811 1.00366,0 0.78575,-0.19644 2.26742,-1.35678 3.01099,-1.5055 0.49209,-0.0984 1.00366,0 1.50549,0 0.50184,0 1.00367,0 1.5055,0 0.50183,0 1.00871,0.071 1.50549,0 0.68277,-0.0975 1.32456,-0.40429 2.00733,-0.50183 4.99435,-0.71348 -1.265,0.75622 2.50916,-0.50183 0.15869,-0.0529 0.38355,0.11828 0.50183,0 0.23656,-0.23657 -0.14962,-0.70443 0,-1.00366 0.10579,-0.21159 0.33455,-0.33456 0.50183,-0.50183 0,-0.33456 -0.1058,-0.68628 0,-1.00367 0.0748,-0.22442 0.39604,-0.29024 0.50183,-0.50183 0.14962,-0.29923 -0.23656,-0.7671 0,-1.00366 0.11828,-0.11828 0.38355,0.11828 0.50183,0 4.8e-4,-4.8e-4 -7.5e-4,-1.50322 0,-1.5055 0.19215,-0.57644 1.19809,-0.69625 1.5055,-1.00366 0.11828,-0.11828 -0.0748,-0.35221 0,-0.50183 0.10579,-0.21159 0.33455,-0.33456 0.50183,-0.50183 0.16728,-0.16728 0.26527,-0.50183 0.50183,-0.50183 0.16728,0 0.16728,0.50183 0,0.50183 -0.52898,0 -1.00366,-0.33456 -1.50549,-0.50183 0.33455,-0.50183 0.73393,-0.96605 1.00366,-1.5055 0.15554,-0.31109 -0.154,-2.20116 0,-2.50916 0.0748,-0.14961 0.42702,0.14962 0.50183,0 0.14962,-0.29923 0,-0.66911 0,-1.00366 0,-0.50183 0,-1.00366 0,-1.5055 0,-0.33455 -0.055,-0.67366 0,-1.00366 0.11339,-0.68032 0.35222,-1.33405 0.50183,-2.00732 0.18503,-0.83264 0.34925,-1.66997 0.50183,-2.50916 0.82029,-4.5116 0.11605,-1.46784 1.00367,-5.01832 0.16727,-0.66911 0.31235,-1.34416 0.50183,-2.00732 0.14532,-0.50863 0.42702,-0.98184 0.50183,-1.5055 0.0946,-0.66238 -0.13122,-1.35121 0,-2.00733 0.0464,-0.23197 0.39604,-0.29024 0.50183,-0.50183 0.56973,-1.13945 0.87344,-2.40672 1.5055,-3.51282 0.083,-0.14524 0.38355,0.11828 0.50183,0 0.11828,-0.11828 -0.16728,-0.50183 0,-0.50183 0.33455,0 -0.14962,0.70443 0,1.00366 0.76149,1.52299 0.40186,0.1 0.50183,0 0.11828,-0.11828 0.38355,-0.11828 0.50183,0 0.11828,0.11829 0,0.33456 0,0.50183"
       id="path4169"
       inkscape:connector-curvature="0" />
    <path
       style="fill:none;fill-rule:evenodd;stroke:#ff0000;stroke-width:1px;stroke-linecap:butt;stroke-linejoin:miter;stroke-opacity:1"
       d="m 356.87052,298.39377 0,84.80954"
       id="path4171"
       inkscape:connector-type="polyline"
       inkscape:connector-curvature="0" />
    <text
       xml:space="preserve"
       style="font-style:normal;font-weight:normal;font-size:40px;line-height:125%;font-family:sans-serif;letter-spacing:0px;word-spacing:0px;fill:#000000;fill-opacity:1;stroke:none;stroke-width:1px;stroke-linecap:butt;stroke-linejoin:miter;stroke-opacity:1"
       x="160.15257"
       y="354.09711"
       id="text4181"
       sodipodi:linespacing="125%"><tspan
         sodipodi:role="line"
         id="tspan4183"
         x="160.15257"
         y="354.09711">d1</tspan></text>
    <text
       xml:space="preserve"
       style="font-style:normal;font-weight:normal;font-size:40px;line-height:125%;font-family:sans-serif;letter-spacing:0px;word-spacing:0px;fill:#000000;fill-opacity:1;stroke:none;stroke-width:1px;stroke-linecap:butt;stroke-linejoin:miter;stroke-opacity:1"
       x="545.55914"
       y="349.58063"
       id="text4185"
       sodipodi:linespacing="125%"><tspan
         sodipodi:role="line"
         id="tspan4187"
         x="545.55914"
         y="349.58063">d2</tspan></text>
  </g>
</svg>
