<?xml version="1.0" encoding="UTF-8" standalone="no"?>
<!-- Created with Inkscape (http://www.inkscape.org/) -->

<svg
   xmlns:dc="http://purl.org/dc/elements/1.1/"
   xmlns:cc="http://creativecommons.org/ns#"
   xmlns:rdf="http://www.w3.org/1999/02/22-rdf-syntax-ns#"
   xmlns:svg="http://www.w3.org/2000/svg"
   xmlns="http://www.w3.org/2000/svg"
   xmlns:sodipodi="http://sodipodi.sourceforge.net/DTD/sodipodi-0.dtd"
   xmlns:inkscape="http://www.inkscape.org/namespaces/inkscape"
   width="210mm"
   height="297mm"
   viewBox="0 0 744.09448819 1052.3622047"
   id="svg2"
   version="1.1"
   inkscape:version="0.91 r13725"
   sodipodi:docname="04.01.defect.svg">
  <defs
     id="defs4" />
  <sodipodi:namedview
     id="base"
     pagecolor="#ffffff"
     bordercolor="#666666"
     borderopacity="1.0"
     inkscape:pageopacity="0.0"
     inkscape:pageshadow="2"
     inkscape:zoom="1.409052"
     inkscape:cx="448.35725"
     inkscape:cy="638.17956"
     inkscape:document-units="px"
     inkscape:current-layer="layer1"
     showgrid="false"
     inkscape:window-width="1366"
     inkscape:window-height="702"
     inkscape:window-x="0"
     inkscape:window-y="27"
     inkscape:window-maximized="1"
     inkscape:snap-bbox="true" />
  <metadata
     id="metadata7">
    <rdf:RDF>
      <cc:Work
         rdf:about="">
        <dc:format>image/svg+xml</dc:format>
        <dc:type
           rdf:resource="http://purl.org/dc/dcmitype/StillImage" />
        <dc:title />
      </cc:Work>
    </rdf:RDF>
  </metadata>
  <g
     inkscape:label="Ebene 1"
     inkscape:groupmode="layer"
     id="layer1">
    <!-- Drive Route Point d_1 -->
    <text
       xml:space="preserve"
       style="font-style:normal;font-weight:normal;font-size:40px;line-height:125%;font-family:sans-serif;letter-spacing:0px;word-spacing:0px;fill:#000000;fill-opacity:1;stroke:none;stroke-width:1px;stroke-linecap:butt;stroke-linejoin:miter;stroke-opacity:1"
       x="-1073.4177"
       y="425.07272"
       id="text4173"
       sodipodi:linespacing="125%"><tspan
         sodipodi:role="line"
         id="tspan4175"
         x="-1073.4177"
         y="425.07272" /></text>
    <text
       xml:space="preserve"
       style="font-style:normal;font-weight:normal;font-size:40px;line-height:125%;font-family:sans-serif;letter-spacing:0px;word-spacing:0px;fill:#000000;fill-opacity:1;stroke:none;stroke-width:1px;stroke-linecap:butt;stroke-linejoin:miter;stroke-opacity:1"
       x="-1068.3994"
       y="451.6698"
       id="text4177"
       sodipodi:linespacing="125%"><tspan
         sodipodi:role="line"
         id="tspan4179"
         x="-1068.3994"
         y="451.6698" /></text>
    <ellipse
       style="fill:#ff0000;fill-rule:evenodd;stroke:#000000;stroke-width:0.99927104px;stroke-linecap:butt;stroke-linejoin:miter;stroke-opacity:1"
       id="path3336"
       cx="305.05289"
       cy="392.8429"
       rx="5.0463285"
       ry="4.946877" />
    <ellipse
       style="fill:#ff0000;fill-rule:evenodd;stroke:#000000;stroke-width:0.99927104px;stroke-linecap:butt;stroke-linejoin:miter;stroke-opacity:1"
       id="circle8"
       cx="708.75922"
       cy="392.8429"
       rx="5.0463285"
       ry="4.946877" />
    <path
       style="fill:none;fill-rule:evenodd;stroke:#0000ff;stroke-width:0.99927104px;stroke-linecap:butt;stroke-linejoin:miter;stroke-opacity:1"
       d="m 310.60106,392.83225 393.61363,0"
       id="path3359"
       inkscape:connector-type="polyline"
       inkscape:connector-curvature="0" />
    <path
       style="fill:none;fill-rule:evenodd;stroke:#00ff00;stroke-width:0.85159218px;stroke-linecap:butt;stroke-linejoin:miter;stroke-opacity:1"
       d="m 306.82719,404.04209 c 0.64081,0.64693 -0.32046,1.47883 0,2.16275 0.0757,0.1612 0.37418,0.21907 0.50663,0.36045 0.2095,0.22355 0.21657,0.54892 0.50664,0.72092 0.75652,0.44852 1.76435,0.64371 2.53339,1.08138 0.93251,0.53074 1.59604,1.27584 2.53329,1.80229 2.28067,1.28092 4.62283,2.51651 7.09342,3.60457 2.39294,1.05388 4.4931,1.18568 7.09332,1.8023 0.86285,0.20462 1.65591,0.55067 2.53339,0.72092 2.3668,0.45922 3.25074,0.36046 5.57331,0.36046 0.67555,0 1.38583,0.15199 2.02675,0 0.45313,-0.10747 0.67555,-0.48061 1.01328,-0.72092 0.67555,-0.12015 1.34382,-0.26331 2.02664,-0.36046 1.00743,-0.14333 2.07815,-0.10384 3.04003,-0.36045 2.02675,-0.5407 0.25332,-0.6308 1.52001,-1.08137 0.23928,-0.0851 2.20132,-0.44534 2.53339,-0.72093 0.79257,-0.65784 1.247,-1.49714 2.02664,-2.16275 0.91747,-0.78322 2.02666,-1.44183 3.04003,-2.16275 1.18219,-0.84107 2.40315,-1.65546 3.54666,-2.52321 1.39099,-1.0555 2.70786,-2.15923 4.0534,-3.24411 1.18784,-0.95773 2.18991,-2.04718 3.54667,-2.88367 8.1079,-4.9991 0.3987,1.15819 7.09332,-3.60459 2.82087,-2.00681 3.23411,-2.65615 5.06672,-5.04641 0.36169,-0.47174 0.47927,-1.06188 1.01335,-1.44184 0.86117,-0.61266 2.17884,-0.82917 3.04001,-1.44182 0.86117,-0.61267 1.26588,-1.48619 2.02668,-2.16275 0.59682,-0.53076 1.40492,-0.92578 2.02667,-1.44184 0.39629,-0.32893 0.45363,-0.91073 1.01334,-1.08137 0.77617,-0.23666 1.81725,0.3184 2.53334,0 1.90254,-0.84595 1.23315,-2.54745 2.53336,-3.60459 0.64848,-0.52726 1.65251,-0.76806 2.53333,-1.08137 0.15106,-0.0537 0.43115,0.10747 0.50667,0 0.50668,-0.72092 -0.25334,-0.54069 0,-1.08138 0.48048,-1.02547 1.73067,-1.60953 2.53334,-2.52321 0.28307,-0.3222 0.21042,-0.76523 0.50668,-1.08138 0.39746,-0.42414 1.07239,-0.6833 1.52,-1.08137 1.1163,-0.18152 0.26783,-0.74152 0.50668,-1.08137 0.10682,-0.15199 0.29303,-0.28447 0.50667,-0.36046 0.15106,-0.0537 0.49544,0.11988 0.50668,0 0,-1.80228 0,-3.60458 0,-5.40688 0.33777,-0.12015 0.84444,-0.12015 1.01333,-0.36045 0.22658,-0.32241 -0.19958,-0.75006 0,-1.08138 0.33264,-0.55219 0.99249,-0.97271 1.52,-1.44183 0.34896,-0.31032 2.50244,-2.26457 3.54669,-2.88367 0.64872,-0.3846 1.30257,-0.77228 2.02668,-1.08138 0.14482,-0.0618 0.38724,0.085 0.50666,0 0.26704,-0.18997 0.28009,-0.50597 0.50667,-0.72091 -1.25025,-1.09128 1.37817,-0.62001 1.52,-0.72091 0.43059,-0.30633 0.58276,-0.77506 1.01334,-1.08138 1.05358,-0.74953 6.18936,-3.57201 7.09337,-3.96504 1.6112,-0.70049 3.41608,-1.14991 5.06669,-1.8023 4.12843,-1.6317 3.47432,-2.13548 8.1067,-2.52321 10.76673,-0.90114 -0.42221,0.60078 7.60005,0 2.20918,-0.16543 4.40844,-0.41097 6.58668,-0.72091 1.20566,-0.17154 2.39909,-0.4069 3.54668,-0.72091 1.05743,-0.28934 2.02669,-0.72092 3.04002,-1.08139 1.18222,-0.36045 2.34618,-0.75288 3.54669,-1.08136 10.51916,-2.87832 -4.21149,1.1095 6.08002,-0.72093 1.0991,-0.19547 1.94698,-0.86929 3.04001,-1.08137 0.61926,-0.12015 3.14133,0.0722 4.05335,0 1.02104,-0.0807 2.0178,-0.28773 3.04001,-0.36045 1.17637,-0.0837 2.36446,0 3.54668,0 1.18223,0 2.37359,-0.10432 3.54669,0 0.69098,0.0614 1.3398,0.27901 2.02667,0.36045 0.53112,0.063 4.27114,0.0294 4.56002,0 0.52872,-0.0537 0.99131,-0.30672 1.52002,-0.36045 0.66876,-0.0679 1.35112,0 2.02667,0 0.67556,0 1.35113,0 2.02668,0 1.35112,0 2.71049,-0.10615 4.05335,0 2.68301,0.21208 3.99136,1.23955 6.58669,2.16275 0.81349,0.28936 1.67052,0.5163 2.53335,0.72091 1.16643,0.27662 2.33145,0.58791 3.54669,0.72092 10.97782,1.20153 -2.81484,-0.80102 5.06669,0 0.52871,0.0537 0.9963,0.28594 1.51999,0.36045 0.33123,0.0471 0.71123,-0.10746 1.01335,0 0.15106,0.0537 0,0.24031 0,0.36047 0.16888,0.12015 0.28007,0.30672 0.50667,0.36045 1.63396,0.38748 3.4205,0.36057 5.06669,0.72092 1.37918,0.3019 2.7627,0.62227 4.05335,1.08138 1.42509,0.50693 2.66466,1.24657 4.05335,1.80228 4.05323,1.62203 3.67477,1.01285 7.09337,2.88368 1.23418,0.6754 2.32232,1.47835 3.54668,2.16275 1.81508,1.01459 4.62015,2.31142 6.58669,3.24411 1.86839,0.88616 3.60565,1.75964 5.57337,2.52321 0.9946,0.38597 2.02667,0.72092 3.04001,1.08139 1.01334,0.36045 1.96521,0.82648 3.04002,1.08136 0.97459,0.23112 2.10907,0.0513 3.04001,0.36046 3.21642,1.06785 5.42247,2.77393 8.1067,4.3255 1.49451,0.86388 2.98684,1.73319 4.56003,2.5232 2.60334,1.30737 5.45528,2.34706 8.10669,3.6046 1.20885,0.57333 2.51937,1.07142 3.54668,1.80229 1.5333,1.09082 6.38398,6.46895 7.09338,7.20916 1.16135,1.21179 2.42315,2.37488 3.54668,3.60458 1.07339,1.17484 1.9242,2.44993 3.04001,3.60459 0.7473,0.77329 1.83424,1.36697 2.53335,2.16275 0.17902,0.20377 0,0.48061 0,0.72091 0,0.36046 0,0.72091 0,1.08138 0,2.18489 -0.19874,1.95767 0.50667,3.96503 3.26711,9.29728 -1.80293,-4.4481 3.54669,4.68596 0.38973,0.66546 -0.0917,1.4448 0,2.16275 0.0779,0.61015 0.25919,1.21547 0.50666,1.8023 1.16474,2.7621 2.96299,3.63119 5.57336,6.48824 0.74206,0.8122 1.56871,1.61095 2.02668,2.52321 0.40166,0.80011 -0.22652,1.85257 0.50666,2.52321 0.65578,0.59984 2.22901,0.22638 3.04001,0.72091 0.52872,0.32242 0.30658,0.96734 0.50667,1.44184 0.30694,0.72786 0.70642,1.43488 1.01334,2.16276 0.2001,0.4745 0.0535,1.06569 0.50667,1.44182 0.64089,0.53194 1.72366,0.68259 2.53335,1.08138 1.38859,0.68392 2.59451,1.55733 4.05334,2.16275 0.6015,0.24962 1.35113,0.24031 2.02669,0.36046 0.67555,0.12015 1.33732,0.2904 2.02666,0.36045 2.70317,0.27474 0.35515,-0.40357 3.04003,0.36046 1.8959,0.53953 0.15424,0.2351 2.53334,1.08138 0.2634,0.0937 2.96958,0.67081 3.04001,0.72091 0.37765,0.26868 0.12902,0.81271 0.50667,1.08138 0.53408,0.37996 1.37902,0.44446 2.02668,0.72092 0.97,0.41406 0.0894,0.42412 1.01333,1.08137 0.43058,0.30633 1.08943,0.41458 1.52001,0.72092 0.11943,0.085 -0.11943,0.27549 0,0.36045 0.11943,0.085 0.33779,0 0.50668,0 1.51999,0 3.04001,0 4.56001,0 0.50667,0 1.01334,0 1.52001,0 0.33778,0 0.68212,-0.0471 1.01334,0 0.52369,0.0745 0.98592,0.36047 1.52,0.36047 6.51438,0 1.32299,-0.27703 5.0667,-0.72092 0.49977,-0.0592 1.03933,0.11399 1.52,0 4.52305,-1.07261 -1.96997,-0.46065 3.54668,-1.44183 0.6554,-0.11656 1.35792,0.0679 2.02667,0 1.05742,-0.10747 1.98261,-0.61345 3.04002,-0.72092 0.66877,-0.068 1.35112,0 2.02669,0 0.16888,0 0.34282,-0.0291 0.50667,0 0.51812,0.0922 0.99318,0.298 1.51999,0.36046 0.49978,0.0592 1.01334,0 1.52001,0 0.50667,0 1.01335,0 1.52001,0 1.52001,0 3.04001,0 4.56002,0 1.0145,0 0.0645,0.0537 1.52001,-0.36046 0.49587,-0.14111 0.99629,-0.28594 1.52001,-0.36046 0.33121,-0.0471 0.68564,0.0582 1.01333,0 0.79333,-0.1411 2.28928,-0.97455 3.04002,-1.08138 0.49682,-0.0707 1.01333,0 1.52,0 0.50668,0 1.01335,0 1.52001,0 0.50667,0 1.01843,0.051 1.52,0 0.68936,-0.07 1.33733,-0.29039 2.02669,-0.36045 5.04248,-0.51249 -1.2772,0.54318 2.53333,-0.36046 0.16022,-0.038 0.38726,0.085 0.50668,0 0.23884,-0.16993 -0.15107,-0.50599 0,-0.72091 0.10681,-0.15199 0.33778,-0.24031 0.50667,-0.36047 0,-0.2403 -0.10682,-0.49294 0,-0.72091 0.0755,-0.1612 0.39986,-0.20848 0.50667,-0.36046 0.15105,-0.21493 -0.23884,-0.55099 0,-0.72092 0.11941,-0.085 0.38724,0.085 0.50666,0 4.9e-4,-3.5e-4 -7.6e-4,-1.07974 0,-1.08137 0.19401,-0.41406 1.20964,-0.50012 1.52001,-0.72092 0.11942,-0.085 -0.0755,-0.25298 0,-0.36045 0.10681,-0.15198 0.33777,-0.24032 0.50667,-0.36047 0.16889,-0.12014 0.26782,-0.36045 0.50666,-0.36045 0.1689,0 0.1689,0.36045 0,0.36045 -0.53407,0 -1.01333,-0.2403 -1.52,-0.36045 0.33778,-0.36046 0.741,-0.69389 1.01334,-1.08137 0.15703,-0.22346 -0.15548,-1.58107 0,-1.8023 0.0755,-0.10747 0.43113,0.10747 0.50666,0 0.15107,-0.21494 0,-0.48061 0,-0.72091 0,-0.36046 0,-0.72092 0,-1.08139 0,-0.24029 -0.0555,-0.48387 0,-0.72091 0.11449,-0.48866 0.35562,-0.95823 0.50668,-1.44183 0.18681,-0.59808 0.35261,-1.19951 0.50667,-1.80229 0.82819,-3.24062 0.11716,-1.05433 1.01334,-3.60459 0.16888,-0.48061 0.31536,-0.96549 0.50666,-1.44182 0.14672,-0.36535 0.43114,-0.70524 0.50667,-1.08138 0.0955,-0.47578 -0.13248,-0.97056 0,-1.44184 0.0468,-0.16661 0.39986,-0.20848 0.50667,-0.36046 0.57522,-0.81845 0.88185,-1.72871 1.52002,-2.5232 0.0838,-0.10432 0.38724,0.0849 0.50667,0 0.11941,-0.085 -0.1689,-0.36046 0,-0.36046 0.33777,0 -0.15107,0.50597 0,0.72091 0.76882,1.09395 0.40573,0.0718 0.50665,0 0.11943,-0.085 0.38726,-0.085 0.50667,0 0.11943,0.085 0,0.24031 0,0.36046"
       id="path4169"
       inkscape:connector-curvature="0" />
    <path
       style="fill:none;fill-rule:evenodd;stroke:#ff0000;stroke-width:0.86446232px;stroke-linecap:butt;stroke-linejoin:miter;stroke-opacity:1"
       d="m 482.25066,345.5736 0,46.27111"
       id="path4171"
       inkscape:connector-type="polyline"
       inkscape:connector-curvature="0" />
    <text
       xml:space="preserve"
       style="font-style:normal;font-variant:normal;font-weight:normal;font-stretch:normal;font-size:17.5px;line-height:100%;font-family:sans-serif;-inkscape-font-specification:'sans-serif, Normal';text-align:start;letter-spacing:0px;word-spacing:0px;writing-mode:lr-tb;text-anchor:start;fill:#000000;fill-opacity:1;stroke:none;stroke-width:1px;stroke-linecap:butt;stroke-linejoin:miter;stroke-opacity:1"
       x="292.32825"
       y="381.8186"
       id="text4181"
       sodipodi:linespacing="100%"
       transform="scale(1.0100019,0.99009714)"><tspan
         sodipodi:role="line"
         id="tspan4183"
         x="292.32825"
         y="381.8186">d1</tspan></text>
    <text
       xml:space="preserve"
       style="font-style:normal;font-variant:normal;font-weight:normal;font-stretch:normal;font-size:17.5px;line-height:100%;font-family:sans-serif;-inkscape-font-specification:'sans-serif, Normal';text-align:start;letter-spacing:0px;word-spacing:0px;writing-mode:lr-tb;text-anchor:start;fill:#000000;fill-opacity:1;stroke:none;stroke-width:1px;stroke-linecap:butt;stroke-linejoin:miter;stroke-opacity:1"
       x="691.5072"
       y="383.75656"
       id="text4185"
       sodipodi:linespacing="100%"
       transform="scale(1.0100019,0.99009714)"><tspan
         sodipodi:role="line"
         id="tspan4187"
         x="691.5072"
         y="383.75656">d2</tspan></text>
    <path
       style="fill:none;fill-rule:evenodd;stroke:#000000;stroke-width:1.22095633px;stroke-linecap:butt;stroke-linejoin:miter;stroke-opacity:1"
       d="m 481.78573,341.86756 -0.085,-78.38461"
       id="path3348"
       inkscape:connector-type="polyline"
       inkscape:connector-curvature="0" />
    <ellipse
       style="opacity:1;fill:#808000;fill-opacity:0;stroke:#ff0000;stroke-width:1.24185371;stroke-opacity:1"
       id="path3352"
       cx="302.85983"
       cy="393.05362"
       rx="225.50679"
       ry="229.94899" />
    <path
       style="fill:none;fill-rule:evenodd;stroke:#0000ff;stroke-width:0.99927104px;stroke-linecap:butt;stroke-linejoin:miter;stroke-opacity:1"
       d="m -93.191048,392.34396 393.613638,0"
       id="path3359-5"
       inkscape:connector-type="polyline"
       inkscape:connector-curvature="0" />
    <path
       style="fill:none;fill-rule:evenodd;stroke:#ff0000;stroke-width:0.86446232px;stroke-linecap:butt;stroke-linejoin:miter;stroke-opacity:1"
       d="m 482.59398,391.91872 0,46.27111"
       id="path4171-0"
       inkscape:connector-type="polyline"
       inkscape:connector-curvature="0" />
    <path
       style="fill:none;fill-rule:evenodd;stroke:#000000;stroke-width:1.22095633px;stroke-linecap:butt;stroke-linejoin:miter;stroke-opacity:1"
       d="m 482.63649,519.5387 -0.085,-78.38461"
       id="path3348-1"
       inkscape:connector-type="polyline"
       inkscape:connector-curvature="0" />
    <path
       style="fill:none;fill-rule:evenodd;stroke:#ff0000;stroke-width:0.86446232px;stroke-linecap:butt;stroke-linejoin:miter;stroke-opacity:1"
       d="m 123.56934,339.30977 0,46.2711"
       id="path4171-1"
       inkscape:connector-type="polyline"
       inkscape:connector-curvature="0" />
    <path
       style="fill:none;fill-rule:evenodd;stroke:#000000;stroke-width:1.22095633px;stroke-linecap:butt;stroke-linejoin:miter;stroke-opacity:1"
       d="m 123.10441,335.60373 -0.085,-78.38461"
       id="path3348-5"
       inkscape:connector-type="polyline"
       inkscape:connector-curvature="0" />
    <path
       style="fill:none;fill-rule:evenodd;stroke:#ff0000;stroke-width:0.86446232px;stroke-linecap:butt;stroke-linejoin:miter;stroke-opacity:1"
       d="m 123.91266,385.65488 0,46.27111"
       id="path4171-0-6"
       inkscape:connector-type="polyline"
       inkscape:connector-curvature="0" />
    <path
       style="fill:none;fill-rule:evenodd;stroke:#000000;stroke-width:1.22095633px;stroke-linecap:butt;stroke-linejoin:miter;stroke-opacity:1"
       d="m 123.95517,513.27486 -0.085,-78.38461"
       id="path3348-1-1"
       inkscape:connector-type="polyline"
       inkscape:connector-curvature="0" />
    <path
       style="fill:none;fill-rule:evenodd;stroke:#0000ff;stroke-width:1px;stroke-linecap:butt;stroke-linejoin:miter;stroke-opacity:1"
       d="m 124.90668,255.37244 354.84851,2.83878"
       id="path4247"
       inkscape:connector-type="polyline"
       inkscape:connector-curvature="0" />
    <path
       style="fill:none;fill-rule:evenodd;stroke:#0000ff;stroke-width:1px;stroke-linecap:butt;stroke-linejoin:miter;stroke-opacity:1"
       d="m 351.30003,297.24456 0,0.7097"
       id="path4249"
       inkscape:connector-type="polyline"
       inkscape:connector-curvature="0" />
    <path
       style="fill:none;fill-rule:evenodd;stroke:#0000ff;stroke-width:1px;stroke-linecap:butt;stroke-linejoin:miter;stroke-opacity:1"
       d="m 126.32608,521.50883 354.84851,2.83878"
       id="path4247-5"
       inkscape:connector-type="polyline"
       inkscape:connector-curvature="0" />
    <path
       style="fill:none;fill-rule:evenodd;stroke:#00ff00;stroke-width:0.85159218px;stroke-linecap:butt;stroke-linejoin:miter;stroke-opacity:1"
       d="m -93.482864,396.17719 c 0.64081,0.64693 -0.32046,1.47883 0,2.16275 0.0757,0.1612 0.37418,0.21907 0.50663,0.36045 0.2095,0.22355 0.21657,0.54892 0.50664,0.72092 0.75652,0.44852 1.76435,0.64371 2.53339,1.08138 0.93251,0.53074 1.59604,1.27584 2.53329,1.80229 2.28067,1.28092 4.62283,2.51651 7.09342,3.60457 2.39294,1.05388 4.4931,1.18568 7.09332,1.8023 0.86285,0.20462 1.65591,0.55067 2.53339,0.72092 2.3668,0.45922 3.25074,0.36046 5.57331,0.36046 0.67555,0 1.38583,0.15199 2.02675,0 0.45313,-0.10747 0.67555,-0.48061 1.01328,-0.72092 0.67555,-0.12015 1.34382,-0.26331 2.02664,-0.36046 1.00743,-0.14333 2.07815,-0.10384 3.04003,-0.36045 2.02675,-0.5407 0.25332,-0.6308 1.52001,-1.08137 0.23928,-0.0851 2.20132,-0.44534 2.53339,-0.72093 0.79257,-0.65784 1.247,-1.49714 2.02664,-2.16275 0.91747,-0.78322 2.02666,-1.44183 3.04003,-2.16275 1.18219,-0.84107 2.40315,-1.65546 3.54666,-2.52321 1.39099,-1.0555 2.70786,-2.15923 4.0534,-3.24411 1.18784,-0.95773 2.18991,-2.04718 3.54667,-2.88367 8.1079,-4.9991 0.3987,1.15819 7.09332,-3.60459 2.82087,-2.00681 3.23411,-2.65615 5.06672,-5.04641 0.36169,-0.47174 0.47927,-1.06188 1.01335,-1.44184 0.86117,-0.61266 2.17884,-0.82917 3.04001,-1.44182 0.86117,-0.61267 1.26588,-1.48619 2.02668,-2.16275 0.59682,-0.53076 1.40492,-0.92578 2.02667,-1.44184 0.39629,-0.32893 0.45363,-0.91073 1.01334,-1.08137 0.77617,-0.23666 1.81725,0.3184 2.53334,0 1.90254,-0.84595 1.23315,-2.54745 2.53336,-3.60459 0.6484802,-0.52726 1.6525102,-0.76806 2.5333302,-1.08137 0.15106,-0.0537 0.43115,0.10747 0.50667,0 0.50668,-0.72092 -0.25334,-0.54069 0,-1.08138 0.48048,-1.02547 1.73067,-1.60953 2.53334,-2.52321 0.28307,-0.3222 0.21042,-0.76523 0.50668,-1.08138 0.39746,-0.42414 1.07239,-0.6833 1.52,-1.08137 1.1163,-0.18152 0.26783,-0.74152 0.50668,-1.08137 0.10682,-0.15199 0.29303,-0.28447 0.50667,-0.36046 0.15106,-0.0537 0.49544,0.11988 0.50668,0 0,-1.80228 0,-3.60458 0,-5.40688 0.33777004,-0.12015 0.84444004,-0.12015 1.01333004,-0.36045 0.22658,-0.32241 -0.19958,-0.75006 0,-1.08138 0.33264,-0.55219 0.99249,-0.97271 1.51999996,-1.44183 0.34896,-0.31032 2.50244,-2.26457 3.54669,-2.88367 0.64872,-0.3846 1.30256,-0.77228 2.02667,-1.08138 0.14482,-0.0618 0.38724,0.085 0.50666,0 0.26704,-0.18997 0.28009,-0.50597 0.50667,-0.72091 -1.25025,-1.09128 1.37817,-0.62001 1.52,-0.72091 0.43059,-0.30633 0.58276,-0.77506 1.0133398,-1.08138 1.05358,-0.74953 6.18936,-3.57201 7.09337,-3.96504 1.6112,-0.70049 3.41608,-1.14991 5.06669,-1.8023 4.12843,-1.6317 3.47432,-2.13548 8.1067,-2.52321 10.76673,-0.90114 -0.42221,0.60078 7.60005,0 2.20918,-0.16543 4.40844,-0.41097 6.58668,-0.72091 1.20566,-0.17154 2.39909,-0.4069 3.54668,-0.72091 1.05743,-0.28934 2.02669,-0.72092 3.04002,-1.08139 1.18222,-0.36045 2.34618,-0.75288 3.54669,-1.08136 10.51916,-2.87832 -4.21149,1.1095 6.08002,-0.72093 1.0991,-0.19547 1.94698,-0.86929 3.04001,-1.08137 0.61926,-0.12015 3.14133,0.0722 4.05335,0 1.02104,-0.0807 2.0178,-0.28773 3.04001,-0.36045 1.17637,-0.0837 2.36446,0 3.54668,0 1.18223,0 2.37359,-0.10432 3.54669,0 0.69098,0.0614 1.3398,0.27901 2.02667,0.36045 0.53112,0.063 4.27114,0.0294 4.56002,0 0.52872,-0.0537 0.99131,-0.30672 1.52002,-0.36045 0.66876,-0.0679 1.35112,0 2.02667,0 0.67556,0 1.35113,0 2.02668,0 1.35112,0 2.71049,-0.10615 4.05335,0 2.68301,0.21208 3.99136,1.23955 6.586694,2.16275 0.81349,0.28936 1.67052,0.5163 2.53335,0.72091 1.16643,0.27662 2.33145,0.58791 3.54669,0.72092 10.97782,1.20153 -2.81484,-0.80102 5.06669,0 0.52871,0.0537 0.9963,0.28594 1.51999,0.36045 0.33123,0.0471 0.71123,-0.10746 1.01335,0 0.15106,0.0537 0,0.24031 0,0.36047 0.16888,0.12015 0.28007,0.30672 0.50667,0.36045 1.63396,0.38748 3.4205,0.36057 5.06669,0.72092 1.37918,0.3019 2.7627,0.62227 4.05335,1.08138 1.42509,0.50693 2.66466,1.24657 4.05335,1.80228 4.05323,1.62203 3.67477,1.01285 7.09337,2.88368 1.23418,0.6754 2.32232,1.47835 3.54668,2.16275 1.81508,1.01459 4.62015,2.31142 6.58669,3.24411 1.86839,0.88616 3.60565,1.75964 5.57337,2.52321 0.9946,0.38597 2.02667,0.72092 3.04001,1.08139 1.01334,0.36045 1.96521,0.82648 3.04002,1.08136 0.97459,0.23112 2.10907,0.0513 3.04001,0.36046 3.21642,1.06785 5.42247,2.77393 8.1067,4.3255 1.49451,0.86388 2.98684,1.73319 4.56003,2.5232 2.60334,1.30737 5.45528,2.34706 8.10669,3.6046 1.20885,0.57333 2.51937,1.07142 3.54668,1.80229 1.5333,1.09082 6.38398,6.46895 7.09338,7.20916 1.16135,1.21179 2.42315,2.37488 3.54668,3.60458 1.07339,1.17484 1.9242,2.44993 3.04001,3.60459 0.7473,0.77329 1.83424,1.36697 2.53335,2.16275 0.17902,0.20377 0,0.48061 0,0.72091 0,0.36046 0,0.72091 0,1.08138 0,2.18489 -0.19874,1.95767 0.50667,3.96503 3.26711,9.29728 -1.80293,-4.4481 3.54669,4.68596 0.38973,0.66546 -0.0917,1.4448 0,2.16275 0.0779,0.61015 0.25919,1.21547 0.50666,1.8023 1.16474,2.7621 2.96299,3.63119 5.57336,6.48824 0.74206,0.8122 1.56871,1.61095 2.02668,2.52321 0.40166,0.80011 -0.22652,1.85257 0.50666,2.52321 0.65578,0.59984 2.22901,0.22638 3.04001,0.72091 0.52872,0.32242 0.30658,0.96734 0.50667,1.44184 0.30694,0.72786 0.70642,1.43488 1.01334,2.16276 0.2001,0.4745 0.0535,1.06569 0.50667,1.44182 0.64089,0.53194 1.72366,0.68259 2.53335,1.08138 1.38859,0.68392 2.59451,1.55733 4.05334,2.16275 0.6015,0.24962 1.35113,0.24031 2.02669,0.36046 0.67555,0.12015 1.33732,0.2904 2.02666,0.36045 2.70317,0.27474 0.35515,-0.40357 3.04003,0.36046 1.8959,0.53953 0.15424,0.2351 2.53334,1.08138 0.2634,0.0937 2.96958,0.67081 3.04001,0.72091 0.37765,0.26868 0.12902,0.81271 0.50667,1.08138 0.53408,0.37996 1.37902,0.44446 2.02668,0.72092 0.97,0.41406 0.0894,0.42412 1.01333,1.08137 0.43058,0.30633 1.08943,0.41458 1.52001,0.72092 0.11943,0.085 -0.11943,0.27549 0,0.36045 0.11943,0.085 0.33779,0 0.50668,0 1.51999,0 3.04001,0 4.56001,0 0.50667,0 1.01334,0 1.52001,0 0.33778,0 0.68212,-0.0471 1.01334,0 0.52369,0.0745 0.98592,0.36047 1.52,0.36047 6.51438,0 1.32299,-0.27703 5.0667,-0.72092 0.49977,-0.0592 1.03933,0.11399 1.52,0 4.52305,-1.07261 -1.96997,-0.46065 3.54668,-1.44183 0.6554,-0.11656 1.35792,0.0679 2.02667,0 1.05742,-0.10747 1.98261,-0.61345 3.04002,-0.72092 0.66877,-0.068 1.35112,0 2.02669,0 0.16888,0 0.34282,-0.0291 0.50667,0 0.51812,0.0922 0.99318,0.298 1.51999,0.36046 0.49978,0.0592 1.01334,0 1.52001,0 0.50667,0 1.01335,0 1.52001,0 1.52001,0 3.04001,0 4.56002,0 1.0145,0 0.0645,0.0537 1.52001,-0.36046 0.49587,-0.14111 0.99629,-0.28594 1.52001,-0.36046 0.33121,-0.0471 0.68564,0.0582 1.01333,0 0.79333,-0.1411 2.28928,-0.97455 3.04002,-1.08138 0.49682,-0.0707 1.01333,0 1.52,0 0.50668,0 1.01335,0 1.52001,0 0.50667,0 1.01843,0.051 1.52,0 0.68936,-0.07 1.33733,-0.29039 2.02669,-0.36045 5.04248,-0.51249 -1.2772,0.54318 2.53333,-0.36046 0.16022,-0.038 0.38726,0.085 0.50668,0 0.23884,-0.16993 -0.15107,-0.50599 0,-0.72091 0.10681,-0.15199 0.33778,-0.24031 0.50667,-0.36047 0,-0.2403 -0.10682,-0.49294 0,-0.72091 0.0755,-0.1612 0.39986,-0.20848 0.50667,-0.36046 0.15105,-0.21493 -0.23884,-0.55099 0,-0.72092 0.11941,-0.085 0.38724,0.085 0.50666,0 4.9e-4,-3.5e-4 -7.6e-4,-1.07974 0,-1.08137 0.19401,-0.41406 1.20964,-0.50012 1.52001,-0.72092 0.11942,-0.085 -0.0755,-0.25298 0,-0.36045 0.10681,-0.15198 0.33777,-0.24032 0.50667,-0.36047 0.16889,-0.12014 0.26782,-0.36045 0.50666,-0.36045 0.1689,0 0.1689,0.36045 0,0.36045 -0.53407,0 -1.01333,-0.2403 -1.52,-0.36045 0.33778,-0.36046 0.741,-0.69389 1.01334,-1.08137 0.15703,-0.22346 -0.15548,-1.58107 0,-1.8023 0.0755,-0.10747 0.43113,0.10747 0.50666,0 0.15107,-0.21494 0,-0.48061 0,-0.72091 0,-0.36046 0,-0.72092 0,-1.08139 0,-0.24029 -0.0555,-0.48387 0,-0.72091 0.11449,-0.48866 0.35562,-0.95823 0.50668,-1.44183 0.18681,-0.59808 0.35261,-1.19951 0.50667,-1.80229 0.82819,-3.24062 0.11716,-1.05433 1.01334,-3.60459 0.16888,-0.48061 0.31536,-0.96549 0.50666,-1.44182 0.14672,-0.36535 0.43114,-0.70524 0.50667,-1.08138 0.0955,-0.47578 -0.13248,-0.97056 0,-1.44184 0.0468,-0.16661 0.39986,-0.20848 0.50667,-0.36046 0.57522,-0.81845 0.88185,-1.72871 1.52002,-2.5232 0.0838,-0.10432 0.38724,0.0849 0.50667,0 0.11941,-0.085 -0.1689,-0.36046 0,-0.36046 0.33777,0 -0.15107,0.50597 0,0.72091 0.76882,1.09395 0.40573,0.0718 0.50665,0 0.11943,-0.085 0.38726,-0.085 0.50667,0 0.11943,0.085 0,0.24031 0,0.36046"
       id="path4169-3"
       inkscape:connector-curvature="0" />
    <rect
       style="opacity:1;fill:#ff0000;fill-opacity:0.1;stroke:#ff0000;stroke-opacity:1"
       id="rect4287"
       width="352.71942"
       height="102.19637"
       x="127.03577"
       y="339.11667" />
    <rect
       style="opacity:1;fill:#000000;fill-opacity:0.1;stroke:#000000;stroke-opacity:1"
       id="rect4289"
       width="352.71942"
       height="80.195763"
       x="127.03577"
       y="442.02277" />
    <rect
       style="opacity:1;fill:#000000;fill-opacity:0.1;stroke:#000000;stroke-opacity:1"
       id="rect4289-1"
       width="352.71942"
       height="80.195763"
       x="126.68092"
       y="257.1467" />
  </g>
</svg>
